HIERARCHY
ROOT Hips
{
	OFFSET 0.000000 100.481300 0.000000
	CHANNELS 6 Xposition Yposition Zposition Xrotation Yrotation Zrotation 
	JOINT Spine
	{
		OFFSET -0.279200 12.230698 -2.892100
		CHANNELS 3 Xrotation Yrotation Zrotation
		JOINT Spine1
		{
			OFFSET -0.232667 10.192268 -1.242267
			CHANNELS 3 Xrotation Yrotation Zrotation
			JOINT Spine1_split
			{
				OFFSET -0.232667 10.192268 -1.242267
				CHANNELS 3 Xrotation Yrotation Zrotation
				JOINT Spine2
				{
					OFFSET -0.232667 10.192268 -1.242267
					CHANNELS 3 Xrotation Yrotation Zrotation
					JOINT Neck
					{
						OFFSET -0.418800 17.814194 8.416900
						CHANNELS 3 Xrotation Yrotation Zrotation
						JOINT Head
						{
							OFFSET 0.000000 7.031097 3.806800
							CHANNELS 3 Xrotation Yrotation Zrotation
							JOINT HeadTop_End
							{
								OFFSET 0.000000 24.646606 12.978600
								CHANNELS 3 Xrotation Yrotation Zrotation
								End Site
								{
									OFFSET 0.000000 0.000000 0.000000
								}
							}
						}
					}
					JOINT LeftShoulder
					{
						OFFSET 8.476499 7.247704 -3.868750
						CHANNELS 3 Xrotation Yrotation Zrotation
						JOINT LeftShoulder_split
						{
							OFFSET 8.476499 7.247704 -3.868750
							CHANNELS 3 Xrotation Yrotation Zrotation
							JOINT LeftArm
							{
								OFFSET 9.308998 -2.777710 0.208600
								CHANNELS 3 Xrotation Yrotation Zrotation
								JOINT LeftForeArm
								{
									OFFSET 29.972298 0.000000 0.000000
									CHANNELS 3 Xrotation Yrotation Zrotation
									JOINT LeftHand
									{
										OFFSET 26.026505 0.000000 0.000000
										CHANNELS 3 Xrotation Yrotation Zrotation
										JOINT LeftHandThumb1
										{
											OFFSET 12.240501 -7.147949 9.207150
											CHANNELS 3 Xrotation Yrotation Zrotation
											JOINT LeftHandThumb2
											{
												OFFSET 4.138618 -2.389435 2.389433
												CHANNELS 3 Xrotation Yrotation Zrotation
												JOINT LeftHandThumb3
												{
													OFFSET 2.726913 -1.574387 1.574386
													CHANNELS 3 Xrotation Yrotation Zrotation
													JOINT LeftHandThumb4
													{
														OFFSET 3.941010 -2.275345 2.275342
														CHANNELS 3 Xrotation Yrotation Zrotation
														End Site
														{
															OFFSET 0.000000 0.000000 0.000000
														}
													}
												}
											}
										}
										JOINT LeftHandIndex1
										{
											OFFSET 24.424698 -1.985611 5.953459
											CHANNELS 3 Xrotation Yrotation Zrotation
											JOINT LeftHandIndex2
											{
												OFFSET 6.426697 0.000000 0.000000
												CHANNELS 3 Xrotation Yrotation Zrotation
												JOINT LeftHandIndex3
												{
													OFFSET 5.337898 0.000000 0.000000
													CHANNELS 3 Xrotation Yrotation Zrotation
													JOINT LeftHandIndex4
													{
														OFFSET 4.409401 0.000000 0.000000
														CHANNELS 3 Xrotation Yrotation Zrotation
														End Site
														{
															OFFSET 0.000000 0.000000 0.000000
														}
													}
												}
											}
										}
										JOINT LeftHandMiddle1
										{
											OFFSET 23.810104 0.000000 0.000000
											CHANNELS 3 Xrotation Yrotation Zrotation
											JOINT LeftHandMiddle2
											{
												OFFSET 7.176498 0.000000 0.000000
												CHANNELS 3 Xrotation Yrotation Zrotation
												JOINT LeftHandMiddle3
												{
													OFFSET 6.774902 0.000000 0.000000
													CHANNELS 3 Xrotation Yrotation Zrotation
													JOINT LeftHandMiddle4
													{
														OFFSET 5.403328 0.000000 0.000000
														CHANNELS 3 Xrotation Yrotation Zrotation
														End Site
														{
															OFFSET 0.000000 0.000000 0.000000
														}
													}
												}
											}
										}
										JOINT LeftHandRing1
										{
											OFFSET 22.908401 -0.839279 -6.020567
											CHANNELS 3 Xrotation Yrotation Zrotation
											JOINT LeftHandRing2
											{
												OFFSET 6.337502 0.000000 0.000000
												CHANNELS 3 Xrotation Yrotation Zrotation
												JOINT LeftHandRing3
												{
													OFFSET 5.779297 0.000000 0.000000
													CHANNELS 3 Xrotation Yrotation Zrotation
													JOINT LeftHandRing4
													{
														OFFSET 4.965698 0.000000 0.000000
														CHANNELS 3 Xrotation Yrotation Zrotation
														End Site
														{
															OFFSET 0.000000 0.000000 0.000000
														}
													}
												}
											}
										}
										JOINT LeftHandPinky1
										{
											OFFSET 20.037003 -1.530319 -10.950146
											CHANNELS 3 Xrotation Yrotation Zrotation
											JOINT LeftHandPinky2
											{
												OFFSET 5.254700 0.000000 0.000000
												CHANNELS 3 Xrotation Yrotation Zrotation
												JOINT LeftHandPinky3
												{
													OFFSET 4.810204 0.000000 0.000000
													CHANNELS 3 Xrotation Yrotation Zrotation
													JOINT LeftHandPinky4
													{
														OFFSET 3.647202 0.000000 0.000000
														CHANNELS 3 Xrotation Yrotation Zrotation
														End Site
														{
															OFFSET 0.000000 0.000000 0.000000
														}
													}
												}
											}
										}
									}
								}
							}
						}
					}
					JOINT RightShoulder
					{
						OFFSET -7.570500 7.247704 -3.868750
						CHANNELS 3 Xrotation Yrotation Zrotation
						JOINT RightShoulder_split
						{
							OFFSET -7.570500 7.247704 -3.868750
							CHANNELS 3 Xrotation Yrotation Zrotation
							JOINT RightArm
							{
								OFFSET -9.308998 -2.777710 0.208500
								CHANNELS 3 Xrotation Yrotation Zrotation
								JOINT RightForeArm
								{
									OFFSET -29.972300 0.000000 0.000000
									CHANNELS 3 Xrotation Yrotation Zrotation
									JOINT RightHand
									{
										OFFSET -26.026505 0.000000 0.000000
										CHANNELS 3 Xrotation Yrotation Zrotation
										JOINT RightHandThumb1
										{
											OFFSET -12.240601 -7.148026 9.207092
											CHANNELS 3 Xrotation Yrotation Zrotation
											JOINT RightHandThumb2
											{
												OFFSET -4.138618 -2.389435 2.389433
												CHANNELS 3 Xrotation Yrotation Zrotation
												JOINT RightHandThumb3
												{
													OFFSET -2.726974 -1.574417 1.574421
													CHANNELS 3 Xrotation Yrotation Zrotation
													JOINT RightHandThumb4
													{
														OFFSET -3.941010 -2.275345 2.275343
														CHANNELS 3 Xrotation Yrotation Zrotation
														End Site
														{
															OFFSET 0.000000 0.000000 0.000000
														}
													}
												}
											}
										}
										JOINT RightHandIndex1
										{
											OFFSET -24.424698 -1.985657 5.953444
											CHANNELS 3 Xrotation Yrotation Zrotation
											JOINT RightHandIndex2
											{
												OFFSET -6.426697 0.000000 0.000000
												CHANNELS 3 Xrotation Yrotation Zrotation
												JOINT RightHandIndex3
												{
													OFFSET -5.337898 0.000000 0.000000
													CHANNELS 3 Xrotation Yrotation Zrotation
													JOINT RightHandIndex4
													{
														OFFSET -4.409401 0.000000 0.000000
														CHANNELS 3 Xrotation Yrotation Zrotation
														End Site
														{
															OFFSET 0.000000 0.000000 0.000000
														}
													}
												}
											}
										}
										JOINT RightHandMiddle1
										{
											OFFSET -23.810097 0.000000 0.000000
											CHANNELS 3 Xrotation Yrotation Zrotation
											JOINT RightHandMiddle2
											{
												OFFSET -7.176498 0.000000 0.000000
												CHANNELS 3 Xrotation Yrotation Zrotation
												JOINT RightHandMiddle3
												{
													OFFSET -6.774902 0.000000 0.000000
													CHANNELS 3 Xrotation Yrotation Zrotation
													JOINT RightHandMiddle4
													{
														OFFSET -5.403328 0.000000 0.000000
														CHANNELS 3 Xrotation Yrotation Zrotation
														End Site
														{
															OFFSET 0.000000 0.000000 0.000000
														}
													}
												}
											}
										}
										JOINT RightHandRing1
										{
											OFFSET -22.908302 -0.839325 -6.020576
											CHANNELS 3 Xrotation Yrotation Zrotation
											JOINT RightHandRing2
											{
												OFFSET -6.337502 0.000000 0.000000
												CHANNELS 3 Xrotation Yrotation Zrotation
												JOINT RightHandRing3
												{
													OFFSET -5.779297 0.000000 0.000000
													CHANNELS 3 Xrotation Yrotation Zrotation
													JOINT RightHandRing4
													{
														OFFSET -4.965698 0.000000 0.000000
														CHANNELS 3 Xrotation Yrotation Zrotation
														End Site
														{
															OFFSET 0.000000 0.000000 0.000000
														}
													}
												}
											}
										}
										JOINT RightHandPinky1
										{
											OFFSET -20.037003 -1.530334 -10.950259
											CHANNELS 3 Xrotation Yrotation Zrotation
											JOINT RightHandPinky2
											{
												OFFSET -5.254700 0.000000 0.000000
												CHANNELS 3 Xrotation Yrotation Zrotation
												JOINT RightHandPinky3
												{
													OFFSET -4.810204 0.000000 0.000000
													CHANNELS 3 Xrotation Yrotation Zrotation
													JOINT RightHandPinky4
													{
														OFFSET -3.647202 0.000000 0.000000
														CHANNELS 3 Xrotation Yrotation Zrotation
														End Site
														{
															OFFSET 0.000000 0.000000 0.000000
														}
													}
												}
											}
										}
									}
								}
							}
						}
					}
				}
			}
		}
	}
	JOINT LeftUpLeg
	{
		OFFSET 15.427100 -6.655098 0.678600
		CHANNELS 3 Xrotation Yrotation Zrotation
		JOINT LeftLeg
		{
			OFFSET 4.081073 -39.591068 13.024000
			CHANNELS 3 Xrotation Yrotation Zrotation
			JOINT LeftFoot
			{
				OFFSET -4.081074 -37.707932 -15.979700
				CHANNELS 3 Xrotation Yrotation Zrotation
				JOINT LeftToeBase
				{
					OFFSET 5.346399 -15.068900 20.645000
					CHANNELS 3 Xrotation Yrotation Zrotation
					JOINT LeftToe_End
					{
						OFFSET 2.754700 0.931300 11.300900
						CHANNELS 3 Xrotation Yrotation Zrotation
						End Site
						{
							OFFSET 0.000000 0.000000 0.000000
						}
					}
				}
			}
		}
	}
	JOINT RightUpLeg
	{
		OFFSET -15.569500 -6.655098 0.678600
		CHANNELS 3 Xrotation Yrotation Zrotation
		JOINT RightLeg
		{
			OFFSET -4.081825 -39.591045 13.023800
			CHANNELS 3 Xrotation Yrotation Zrotation
			JOINT RightFoot
			{
				OFFSET 4.081824 -37.707954 -15.979600
				CHANNELS 3 Xrotation Yrotation Zrotation
				JOINT RightToeBase
				{
					OFFSET -5.346400 -15.068900 20.645000
					CHANNELS 3 Xrotation Yrotation Zrotation
					JOINT RightToe_End
					{
						OFFSET -2.754700 0.931300 11.300900
						CHANNELS 3 Xrotation Yrotation Zrotation
						End Site
						{
							OFFSET 0.000000 0.000000 0.000000
						}
					}
				}
			}
		}
	}
}
MOTION
Frames: 4
Frame Time: 0.016667
2.180657 82.366562 -1.187720 9.582369 -61.717767 10.032742 15.064220 -0.187990 -4.170218 5.872408 0.563921 -2.798208 0.000000 0.000000 0.000000 5.868720 0.648185 -2.860163 -3.632888 1.437144 3.747497 -20.005960 54.836768 2.407367 0.000000 0.000000 0.000000 1.828104 -3.192685 -12.271575 0.000000 0.000000 0.000000 -39.387406 26.350491 -34.911091 0.429354 -46.808444 0.416183 -10.315066 -0.130723 0.363017 40.109931 -15.297194 -0.360499 5.639808 28.097926 11.338846 1.088580 40.896301 22.734018 0.000001 -0.000003 0.000001 6.882262 2.840055 -61.140418 8.247996 7.640053 -89.897884 2.146112 8.173445 -41.827747 0.000003 0.000000 -0.000002 -2.345515 4.688872 -62.655224 8.754155 9.897090 -87.051287 1.995393 4.929280 -37.483453 -0.000003 -0.000000 -0.000002 -9.042456 10.045660 -60.766185 8.524080 9.508824 -66.893029 6.576556 9.896755 -70.385113 0.000002 -0.000002 -0.000001 -17.946908 14.754967 -51.485853 8.868441 8.667067 -84.811982 4.540460 8.852539 -59.152976 -0.000004 -0.000001 -0.000002 0.632603 7.257356 8.700387 0.000000 0.000000 0.000000 7.936006 -9.680152 53.429903 -22.867451 36.194709 17.955457 -27.369927 10.432876 -17.813548 -2.346180 -6.100563 10.731435 2.364076 -23.806303 -8.771058 -5.012448 13.984834 5.861515 -0.000000 0.000002 -0.000003 -0.054756 0.532098 0.738732 0.019774 -0.087313 5.078510 -0.003994 -2.004385 -2.834036 -0.000001 -0.000000 0.000003 0.348248 -5.918529 2.583828 1.432608 -4.204225 24.052095 0.133895 1.746458 -5.752988 0.000000 0.000000 0.000004 1.205803 -11.756077 4.154778 1.794851 -3.771873 26.865410 1.319781 -3.995362 19.486916 0.000001 0.000000 -0.000000 2.126185 -19.166879 11.319984 3.354769 -2.122239 18.828526 6.367039 -5.015708 28.949186 -0.000000 0.000000 -0.000001 -36.773394 10.617890 26.395145 33.315651 -8.026587 0.411750 -2.590174 -1.478197 -18.486377 -1.836412 -0.000612 -0.000027 -0.000000 0.000001 0.000000 -28.946810 -19.272086 -35.992802 32.930770 6.440863 -2.518599 -10.676321 -1.252884 25.195236 -0.001699 -0.000451 -0.000006 -0.000000 -0.000000 -0.000000 
2.199862 81.523743 -2.443248 9.995341 -55.528400 8.382522 18.425187 -0.384864 -3.803921 7.295527 -0.352587 -0.796545 0.000000 0.000000 0.000000 7.297468 -0.185250 -0.836843 -9.418998 1.041046 2.964138 -33.847146 49.164429 3.507840 -0.000000 -0.000000 0.000000 3.590656 -8.212496 -8.338647 0.000000 0.000000 0.000000 -17.336427 15.897262 -30.473750 -15.109927 -56.231984 -14.869721 -11.534143 1.944484 -6.382527 40.109924 -15.297196 -0.360496 5.639812 28.097930 11.338844 1.088582 40.896304 22.734011 0.000000 0.000001 0.000000 6.882256 2.840058 -61.140418 8.247999 7.640054 -89.897884 2.146116 8.173441 -41.827747 0.000001 0.000002 -0.000001 -2.345518 4.688874 -62.655231 8.754152 9.897086 -87.051280 1.995395 4.929280 -37.483450 0.000002 0.000001 0.000000 -9.042455 10.045667 -60.766185 8.524082 9.508819 -66.893029 6.576555 9.896755 -70.385113 0.000002 -0.000000 -0.000001 -17.946908 14.754969 -51.485850 8.868445 8.667063 -84.811982 4.540460 8.852544 -59.152976 0.000001 -0.000000 0.000001 2.195481 10.570676 6.739749 0.000000 0.000000 0.000000 12.334692 -2.089138 49.300606 -23.008768 37.026790 18.727889 -25.845426 16.676409 -17.494133 0.214181 -4.319374 5.919520 1.314349 -24.654490 -5.837905 -5.255345 11.018658 5.600842 0.000000 -0.000002 -0.000002 0.333209 0.054705 1.470550 -0.415179 -0.423082 6.838803 -0.465101 -2.292391 -0.611713 0.000002 0.000001 -0.000001 -0.032231 -5.717559 3.568895 1.219209 -4.302315 24.290262 -0.087832 1.409205 -3.505398 0.000004 -0.000002 0.000001 0.521327 -11.018103 4.548188 2.135405 -3.822170 27.589403 1.354176 -3.794893 18.081362 0.000001 0.000000 -0.000001 0.964448 -17.509369 12.312423 4.696303 -2.397691 20.330891 6.364586 -4.542091 25.463746 -0.000003 0.000002 0.000000 -42.128661 6.519163 26.060028 34.121672 -8.971342 0.757652 -0.150759 -4.331306 -18.347437 -1.836422 -0.000607 -0.000071 -0.000000 0.000001 0.000000 -27.069950 -19.572214 -35.483570 36.268079 3.506833 -0.361923 -12.480469 -2.273145 24.635150 -0.189368 -0.001878 0.430698 0.000000 -0.000000 -0.000000 
1.484778 80.712189 -3.300609 8.571180 -43.714611 6.385637 19.041147 -0.179366 -2.182926 8.434704 -1.248274 0.996158 0.000000 0.000000 0.000000 8.432945 -1.053495 0.978031 -4.999487 -0.762674 5.645551 -37.843268 41.961011 5.245530 -0.000000 -0.000000 0.000000 3.416885 -8.568167 -4.408950 0.000000 0.000000 0.000000 -14.803025 11.945508 -33.781747 -16.458802 -59.708824 -14.596210 -9.671798 4.965346 -21.142601 40.109924 -15.297194 -0.360498 5.639810 28.097926 11.338852 1.088579 40.896307 22.734020 -0.000004 0.000001 0.000000 6.882257 2.840058 -61.140411 8.247996 7.640054 -89.897891 2.146116 8.173441 -41.827751 0.000000 0.000001 0.000001 -2.345518 4.688873 -62.655224 8.754154 9.897090 -87.051287 1.995393 4.929282 -37.483446 0.000000 -0.000000 0.000001 -9.042455 10.045665 -60.766185 8.524084 9.508817 -66.893035 6.576557 9.896758 -70.385106 -0.000001 0.000001 0.000000 -17.946901 14.754971 -51.485857 8.868440 8.667061 -84.811975 4.540457 8.852545 -59.152976 0.000000 0.000001 -0.000000 2.138317 11.266873 6.137825 0.000000 0.000000 0.000000 17.411414 3.777407 45.935942 -16.048084 34.606793 15.226672 -24.851896 19.175845 -10.594039 3.146373 -2.974227 1.047954 0.338260 -25.670409 -2.901100 -5.541122 8.094000 5.279802 0.000000 0.000001 0.000002 0.732167 -0.412259 2.206419 -0.830867 -0.784098 8.596218 -0.906456 -2.618072 1.613792 0.000002 0.000000 0.000001 -0.419551 -5.531666 4.555020 1.000257 -4.405244 24.527525 -0.286456 1.057030 -1.251768 0.000004 -0.000000 0.000000 -0.173232 -10.295275 4.954413 2.478518 -3.867628 28.313808 1.403058 -3.593209 16.677560 0.000002 -0.000000 0.000001 -0.259757 -15.908909 13.341548 6.053404 -2.603404 21.859103 6.418841 -4.093783 21.977073 0.000003 -0.000001 0.000001 -47.788224 3.063867 20.332934 33.169741 -13.091642 0.895584 4.420405 -7.180618 -16.409120 -1.836407 -0.000689 -0.000200 -0.000000 0.000000 0.000000 -20.207577 -22.427775 -37.071613 37.443124 -1.220965 2.795708 -14.222405 -4.493635 28.816930 -3.623228 0.002123 -0.047418 0.000000 -0.000000 -0.000000 
0.031883 80.458847 -3.684569 5.241206 -30.415720 6.213900 17.952418 0.734132 -2.370182 7.663517 -0.055115 1.868098 0.000000 0.000000 0.000000 7.656343 0.145391 1.807646 11.921184 -3.328153 12.513455 -29.858227 34.396566 5.825761 0.000000 0.000000 0.000002 1.265614 -7.131520 -5.657127 0.000000 0.000000 0.000000 -23.592595 7.588122 -38.951319 11.776956 -59.937130 11.769767 -8.770859 10.933217 -13.361112 40.109927 -15.297197 -0.360499 5.639811 28.097930 11.338847 1.088574 40.896307 22.734017 -0.000002 -0.000002 0.000001 6.882253 2.840058 -61.140411 8.248000 7.640052 -89.897884 2.146115 8.173442 -41.827751 0.000001 -0.000001 -0.000000 -2.345519 4.688872 -62.655224 8.754154 9.897088 -87.051287 1.995393 4.929281 -37.483450 0.000003 -0.000000 -0.000002 -9.042458 10.045666 -60.766185 8.524087 9.508819 -66.893029 6.576559 9.896757 -70.385113 -0.000000 0.000000 0.000002 -17.946911 14.754974 -51.485850 8.868438 8.667061 -84.811982 4.540462 8.852541 -59.152976 -0.000004 -0.000000 -0.000001 0.254899 10.476046 11.937816 0.000000 0.000000 0.000000 21.048073 3.074637 42.497741 -10.393978 28.226097 14.523731 -24.135635 14.464041 8.084086 6.401482 -2.095813 -3.851045 -0.551792 -26.850015 0.038778 -5.855352 5.180056 4.884399 -0.000002 0.000001 -0.000000 1.142045 -0.868711 2.949704 -1.226181 -1.169345 10.346299 -1.326162 -2.978475 3.837913 -0.000000 -0.000001 0.000002 -0.813171 -5.361012 5.543570 0.782489 -4.510072 24.763256 -0.458294 0.691611 1.004477 -0.000001 0.000000 0.000002 -0.877468 -9.587932 5.372618 2.822595 -3.905261 29.040059 1.466629 -3.390915 15.274021 0.000002 -0.000000 -0.000002 -1.545738 -14.365766 14.409160 7.422750 -2.738233 23.406276 6.527021 -3.677028 18.490912 -0.000001 0.000001 -0.000000 -49.231713 4.474372 11.573541 28.994238 -17.267791 0.542580 10.289271 -12.212611 -13.876935 -1.836406 -0.000865 -0.000401 0.000000 -0.000003 -0.000000 -10.567444 -25.593836 -38.060003 39.262519 -6.057299 4.485349 -17.599077 -7.385705 30.221292 -4.579287 -0.214611 2.875004 0.000000 0.000000 0.000000 
